# xmcd CD database file
#
# Track frame offsets:
#	150
#	54485
#	146953
#	172658
#	260113
#	292008
#
# Disc length: 4733 seconds
#
# Revision: 0
# Processed by: cddbd v1.5.2PL0 Copyright (c) Steve Scherf et al.
# Submitted via: CDex 1.51
#
DISCID=5c127b06
DTITLE=David Parsons - In Retrospect 1980-2003
DYEAR=2003
DGENRE=New Age
TTITLE0=Maitreya
TTITLE1=Dorje Ling
TTITLE2=Separation
TTITLE3=Himalaya
TTITLE4=Shaman
TTITLE5=Dawa Gompa
EXTD=YEAR: 2003
EXTT0=
EXTT1=
EXTT2=
EXTT3=
EXTT4=
EXTT5=
PLAYORDER=
